<svg width="16" height="13" viewBox="0 0 16 13" fill="none" xmlns="http://www.w3.org/2000/svg">
<path fill-rule="evenodd" clip-rule="evenodd" d="M12.9999 10C13.5588 10 14 10.4411 14 10.9999C14 11.5589 13.5588 12 12.9999 12C12.4412 12 12 11.5589 12 10.9999C12 10.4411 12.4115 10 12.9999 10ZM7 10C7.55882 10 8 10.4411 8 10.9999C8 11.5589 7.55882 12 7 12C6.44118 12 6 11.5589 6 10.9999C6 10.4411 6.44118 10 7 10ZM7 9C5.8932 9 5 9.91258 5 10.9999C5 12.0874 5.91262 13 7 13C8.08738 13 9 12.0874 9 10.9999C9 9.91258 8.1068 9 7 9ZM13 9C11.8932 9 11 9.91258 11 10.9999C11 12.0874 11.9126 13 13 13C14.0876 13 15 12.0874 15 10.9999C15 9.91258 14.0876 9 13 9ZM0.597802 0.0173156C0.263736 0.0173156 0 0.27705 0 0.606048C0 0.935045 0.263736 1.19478 0.597802 1.19478H2.28571L3.86813 7.09941C4.00879 7.6362 4.48352 8 5.04615 8H6.38242H12.5187H13.2747C13.8198 8 14.2769 7.6362 14.4352 7.13422L16 1.80083H14.7341L13.2747 6.80505H5.04615L3.46374 0.900587C3.32308 0.363628 2.84835 0 2.28571 0H0.597802V0.0173156Z" fill="#323230"/>
</svg>
