<svg width="12" height="11" viewBox="0 0 12 11" fill="none" xmlns="http://www.w3.org/2000/svg">
<path fill-rule="evenodd" clip-rule="evenodd" d="M10.9344 5.31653H8.02675V2.72644L9.35038 2.61383H9.37208C9.45888 2.61383 9.54567 2.65888 9.58907 2.72644L10.8476 4.16788C10.891 4.23545 10.9344 4.30302 10.9344 4.37059V5.31653ZM8.02675 8.55978C8.02675 8.17689 8.33053 7.8841 8.67772 7.8841C9.0466 7.8841 9.32868 8.19942 9.32868 8.55978C9.32868 8.94288 9.0466 9.23545 8.67772 9.23545C8.30884 9.23545 8.02675 8.92014 8.02675 8.55978ZM2.16989 8.55978C2.16989 8.17689 2.45198 7.8841 2.82086 7.8841C3.18974 7.8841 3.47183 8.19942 3.47183 8.55978C3.47183 8.94288 3.16804 9.23545 2.82086 9.23545C2.45198 9.23545 2.16989 8.92014 2.16989 8.55978ZM10.4136 1.9832C10.1315 1.64536 9.69757 1.4877 9.28529 1.51023L7.37578 1.66788V0.361578C7.37578 0.226443 7.28899 0.136353 7.15879 0.136353H0.216989C0.108495 0.136353 0 0.226443 0 0.361578V8.17689C0 8.51473 0.260387 8.785 0.585871 8.785H1.30193C1.43213 9.55077 2.0614 10.1364 2.82086 10.1364C3.58032 10.1364 4.23129 9.55077 4.31808 8.785H7.15879C7.28899 9.55077 7.91825 10.1364 8.67772 10.1364C9.43718 10.1364 10.0664 9.55077 10.1749 8.785H11.1731C11.6288 8.785 11.9977 8.40212 11.9977 7.92915V4.37059C12.0194 4.01023 11.8892 3.67239 11.6722 3.40212L10.4136 1.9832Z" fill="#686868"/>
</svg>
