<svg width="16" height="16" viewBox="0 0 16 16" fill="none" xmlns="http://www.w3.org/2000/svg">
<path fill-rule="evenodd" clip-rule="evenodd" d="M0.998413 15.001L1.93872 11.9603L4.07581 14.0656L0.998413 15.001ZM3 10.6765L9.67662 4L12 6.32353L5.32353 13L3 10.6765ZM14 4.03433L13.0343 5L11 2.96567L11.9657 2L14 4.03433ZM15.9115 3.9718L12.0187 0.0758943C11.9174 -0.0252981 11.7489 -0.0252981 11.6309 0.0758943L0.744099 10.9708C0.575572 11.1394 0.457604 11.3757 0.440751 11.6118L0.00258088 15.4065C-0.0142718 15.5752 0.053139 15.7439 0.154255 15.845C0.272224 15.9631 0.423898 16.0137 0.592425 15.9968L4.38428 15.5583C4.62022 15.5244 4.85616 15.4234 5.02468 15.2548L15.9115 4.35971C16.0295 4.25851 16.0295 4.073 15.9115 3.9718Z" fill="#686868"/>
</svg>
