<svg width="72" height="72" viewBox="0 0 72 72" fill="none" xmlns="http://www.w3.org/2000/svg">
<path d="M43.0479 17.3239H61V63H11V17.3239H28.5234H28.8896L29.1692 17.0874L35.9806 11.3261L42.38 17.0682L42.665 17.3239H43.0479Z" stroke="#323230" stroke-width="2"/>
<path fill-rule="evenodd" clip-rule="evenodd" d="M45.6526 31.3473C45.1918 30.8842 44.4364 30.8842 43.9756 31.3473L27.3456 47.9718C26.8848 48.4349 26.8848 49.1878 27.3456 49.6509C27.5784 49.8836 27.8825 50 28.1841 50C28.4882 50 28.7922 49.8813 29.025 49.6509L45.6526 33.0264C46.1158 32.5633 46.1158 31.8104 45.6526 31.3473Z" fill="#323230"/>
<path fill-rule="evenodd" clip-rule="evenodd" d="M24.4 34C24.4 32.0152 26.0152 30.4 28 30.4C29.9848 30.4 31.6 32.0152 31.6 34C31.6 35.9848 29.9848 37.6 28 37.6C26.0152 37.6 24.4 35.9872 24.4 34ZM34 34C34 30.6904 31.3072 28 28 28C24.6928 28 22 30.6904 22 34C22 37.3096 24.6928 40 28 40C31.3072 40 34 37.3096 34 34Z" fill="#323230"/>
<path fill-rule="evenodd" clip-rule="evenodd" d="M45 51.6C43.0152 51.6 41.4 49.9824 41.4 48C41.4 46.0128 43.0152 44.4 45 44.4C46.9848 44.4 48.6 46.0128 48.6 48C48.6 49.9824 46.9848 51.6 45 51.6ZM45 42C41.6928 42 39 44.6904 39 48C39 51.3096 41.6928 54 45 54C48.3072 54 51 51.3096 51 48C51 44.6904 48.3072 42 45 42Z" fill="#323230"/>
</svg>
