<svg width="32" height="32" viewBox="0 0 32 32" fill="none" xmlns="http://www.w3.org/2000/svg">
<rect x="0.5" y="0.5" width="31" height="31" rx="1.5" fill="white" stroke="#D2D2D2"/>
<path fill-rule="evenodd" clip-rule="evenodd" d="M23 8H9C8.44772 8 8 8.44772 8 9V23C8 23.5523 8.44772 24 9 24H23C23.5523 24 24 23.5523 24 23V9C24 8.44772 23.5523 8 23 8ZM9.5 22.5V9.5H22.5V22.5H9.5Z" fill="#686868"/>
<path d="M9.52627 19.6566L8.47363 18.588L12.1135 15.0026L15.0904 18.0008L20.0886 11.8301L24.0114 16.3861L22.8747 17.3649L20.1237 14.1699L15.2039 20.2439L12.1018 17.1197L9.52627 19.6566Z" fill="#686868"/>
<path fill-rule="evenodd" clip-rule="evenodd" d="M13.5 14C14.3284 14 15 13.3284 15 12.5C15 11.6716 14.3284 11 13.5 11C12.6716 11 12 11.6716 12 12.5C12 13.3284 12.6716 14 13.5 14Z" fill="#686868"/>
</svg>
