<svg width="40" height="40" viewBox="0 0 40 40" fill="none" xmlns="http://www.w3.org/2000/svg">
<path d="M39 20C39 30.4934 30.4934 39 20 39C9.50659 39 1 30.4934 1 20C1 9.50659 9.50659 1 20 1C30.4934 1 39 9.50659 39 20Z" stroke="#323230" stroke-width="2"/>
<path d="M15.6209 14.912L15.5009 12.488C15.6769 12.456 15.9969 12.4 16.4609 12.32C16.9409 12.224 17.2769 12.168 17.4689 12.152C17.6609 12.12 17.9649 12.08 18.3809 12.032C18.7969 11.984 19.2289 11.952 19.6769 11.936C20.1409 11.92 20.6769 11.912 21.2849 11.912C23.0129 11.912 24.3009 12.216 25.1489 12.824C25.9969 13.432 26.4209 14.368 26.4209 15.632C26.4209 16.272 26.2769 16.872 25.9889 17.432C25.7169 17.976 25.3809 18.456 24.9809 18.872C24.5809 19.288 24.1729 19.712 23.7569 20.144C23.3409 20.576 22.9729 21.104 22.6529 21.728C22.3329 22.336 22.1489 23.008 22.1009 23.744H19.2209C19.1889 22.784 19.3409 21.896 19.6769 21.08C20.0129 20.264 20.3889 19.624 20.8049 19.16C21.2369 18.696 21.6449 18.208 22.0289 17.696C22.4129 17.184 22.6209 16.728 22.6529 16.328C22.7009 15.8 22.5489 15.416 22.1969 15.176C21.8449 14.92 21.2609 14.792 20.4449 14.792C19.0369 14.792 17.4289 14.832 15.6209 14.912ZM20.2289 25.376H21.0689C21.5329 25.376 21.8529 25.464 22.0289 25.64C22.2209 25.816 22.3169 26.136 22.3169 26.6V27.752C22.3169 28.216 22.2209 28.544 22.0289 28.736C21.8529 28.912 21.5329 29 21.0689 29H20.2289C19.7649 29 19.4369 28.912 19.2449 28.736C19.0689 28.544 18.9809 28.216 18.9809 27.752V26.6C18.9809 26.136 19.0689 25.816 19.2449 25.64C19.4369 25.464 19.7649 25.376 20.2289 25.376Z" fill="#323230"/>
</svg>
