<svg width="72" height="72" viewBox="0 0 72 72" fill="none" xmlns="http://www.w3.org/2000/svg">
<rect x="10" y="17" width="52" height="2" fill="#323230"/>
<rect x="10" y="27" width="18" height="2" fill="#323230"/>
<rect x="10" y="37" width="15" height="2" fill="#323230"/>
<rect x="10" y="47" width="18" height="2" fill="#323230"/>
<path fill-rule="evenodd" clip-rule="evenodd" d="M59.3897 41.6883L62.9132 40.2406C62.9709 39.668 63 39.0874 63 38.5C63 37.9122 62.9709 37.3312 62.9132 36.759L59.3897 35.3113C59.2289 34.6294 59.0187 33.9669 58.7613 33.3292L60.7793 30.0409C60.2063 29.0319 59.5339 28.0893 58.7754 27.2262L55.0916 28.1745C54.5748 27.7245 54.025 27.313 53.4442 26.9478L53.1892 23.0736C52.1619 22.6071 51.0792 22.2447 49.9541 22L47.518 24.9842C47.1816 24.9581 46.8433 24.9404 46.5002 24.9404C46.1571 24.9404 45.8184 24.9581 45.482 24.9846L43.0455 22C41.9212 22.2447 40.8385 22.6071 39.8116 23.0736L39.5562 26.9478C38.9757 27.313 38.426 27.7245 37.9092 28.1745L34.2254 27.2262C33.4673 28.0893 32.7945 29.0315 32.2211 30.0409L34.2395 33.3292C33.9817 33.9669 33.7715 34.6294 33.6111 35.3113L30.0876 36.759C30.0295 37.3316 30 37.9122 30 38.5C30 39.0874 30.0295 39.668 30.0868 40.2406L33.6103 41.6883C33.7711 42.3706 33.9813 43.0327 34.2387 43.6704L32.2204 46.9591C32.7937 47.9681 33.4665 48.9115 34.2246 49.7734L37.9084 48.8255C38.4256 49.2755 38.975 49.687 39.5558 50.0526L39.8108 53.9264C40.8377 54.3929 41.9204 54.7545 43.0447 55L45.4812 52.0158C45.8176 52.0419 46.1563 52.0596 46.4994 52.0596C46.8425 52.0596 47.1808 52.0423 47.5172 52.0158L49.9533 55C51.0785 54.7545 52.1611 54.3929 53.1884 53.9264L53.4434 50.0526C54.0243 49.687 54.574 49.2755 55.0908 48.8255L58.7742 49.7734C59.5327 48.9115 60.2051 47.9685 60.7781 46.9591L58.7613 43.6704C59.0191 43.0327 59.2289 42.3706 59.3897 41.6883ZM58.4293 46.9548C58.6447 46.6357 58.8481 46.3078 59.0388 45.9718L60.7781 46.9591L59.2587 47.8909L58.7742 49.7734L57.2728 48.4521C57.5377 48.1511 57.7905 47.839 58.0305 47.5168L58.9132 47.744L58.4293 46.9548ZM60.9957 38.8662C60.9865 39.2613 60.9623 39.6527 60.9233 40.0398L62.9132 40.2406L62.1979 38.4998L62.9132 36.759L60.9233 36.9599C60.9623 37.3466 60.9865 37.738 60.9957 38.1334L57.6788 36.7706L57.443 35.7702C57.3057 35.1877 57.1263 34.6219 56.9067 34.0779L56.5292 33.1427L58.4301 30.0451C58.6458 30.3645 58.8493 30.6926 59.0401 31.0285L60.7793 30.0409L59.2599 29.1085L58.7754 27.2262L57.2731 28.5465C57.5383 28.8483 57.7913 29.1607 58.0313 29.483L54.5715 30.3736L53.7782 29.6828C53.3324 29.2946 52.8652 28.9462 52.3796 28.6409L51.5156 28.0976L51.2757 24.4545C51.6436 24.586 52.006 24.7329 52.3622 24.8946L53.1892 23.0736L51.4126 23.1906L49.9541 22L49.5291 23.9543C49.9212 24.0396 50.3088 24.1415 50.6912 24.2597L48.4059 27.0591L47.3632 26.9782C47.0386 26.953 46.7608 26.9404 46.5002 26.9404C46.2388 26.9404 45.9602 26.9531 45.6392 26.9784L44.595 27.0607L42.3085 24.2599C42.691 24.1416 43.0787 24.0396 43.4708 23.9543L43.0455 22L41.587 23.1907L39.8116 23.0736L40.6388 24.8945C40.9949 24.7328 41.3572 24.5859 41.7249 24.4544L41.4847 28.0973L40.6213 28.6405C40.1356 28.9462 39.6682 29.2947 39.2226 29.6828L38.4293 30.3736L34.9696 29.483C35.2096 29.1608 35.4626 28.8483 35.728 28.5461L34.2254 27.2262L33.741 29.108L32.2211 30.0409L33.9601 31.0287C34.1509 30.6929 34.3546 30.3648 34.5705 30.0452L36.472 33.1431L36.0937 34.0788C35.874 34.6222 35.6948 35.1873 35.558 35.7691L35.3226 36.7703L32.0043 38.1337C32.0136 37.7395 32.038 37.3485 32.0774 36.9611L30.0876 36.759L30.8025 38.4988L30.0868 40.2406L32.0769 40.0412C32.0378 39.6516 32.0136 39.2598 32.0043 38.8662L35.3213 40.2291L35.557 41.2297C35.6942 41.8119 35.8735 42.3771 36.0933 42.9217L36.4708 43.857L34.5697 46.9547C34.3539 46.6353 34.1502 46.3072 33.9592 45.971L32.2204 46.9591L33.7405 47.8921L34.2246 49.7734L35.7263 48.4525C35.4615 48.1514 35.2086 47.8392 34.9685 47.5168L38.4282 46.6266L39.2213 47.3167C39.6684 47.7059 40.1357 48.0544 40.6213 48.3601L41.4845 48.9034L41.7242 52.5454C41.356 52.4138 40.9937 52.267 40.638 52.1055L39.8108 53.9264L41.5866 53.8095L43.0447 55L43.4713 53.046C43.0784 52.9602 42.6904 52.8581 42.308 52.7399L44.5934 49.9409L45.636 50.0218C45.9604 50.047 46.2387 50.0596 46.4994 50.0596C46.7631 50.0596 47.0426 50.047 47.3601 50.022L48.4042 49.9397L50.6902 52.74C50.3079 52.8581 49.9199 52.9602 49.527 53.046L49.9533 55L51.4118 53.8094L53.1884 53.9264L52.3614 52.1054C52.0056 52.2669 51.6432 52.4137 51.275 52.5453L51.5148 48.9034L52.3779 48.3601C52.8644 48.0539 53.3318 47.7052 53.7774 47.3172L54.5706 46.6265L58.0305 47.5168C58.1677 47.3327 58.3006 47.1453 58.4293 46.9548L56.529 43.856L56.9071 42.9208C57.1263 42.3784 57.3054 41.8136 57.443 41.2297L57.6787 40.2291L60.9957 38.8662ZM51.275 52.5453L51.2195 53.3883L50.6902 52.74C50.8867 52.6793 51.0816 52.6144 51.275 52.5453ZM42.308 52.7399L41.7797 53.3871L41.7242 52.5454C41.9173 52.6144 42.1119 52.6793 42.308 52.7399ZM34.9685 47.5168L34.0852 47.7441L34.5697 46.9547C34.6984 47.1453 34.8314 47.3327 34.9685 47.5168ZM32.0043 38.8662L31.1129 38.5L32.0043 38.1337C32.0014 38.2555 32 38.3776 32 38.5C32 38.6222 32.0014 38.7443 32.0043 38.8662ZM34.5705 30.0452L34.0858 29.2555L34.9696 29.483C34.8322 29.6673 34.6992 29.8548 34.5705 30.0452ZM41.7249 24.4544L41.7804 23.6129L42.3085 24.2599C42.1126 24.3204 41.918 24.3853 41.7249 24.4544ZM50.6912 24.2597L51.2203 23.6117L51.2757 24.4545C51.0824 24.3853 50.8875 24.3204 50.6912 24.2597ZM58.0313 29.483L58.9146 29.2556L58.4301 30.0451C58.3014 29.8546 58.1685 29.6672 58.0313 29.483ZM60.9957 38.8662C60.9986 38.7445 61 38.6224 61 38.5C61 38.3774 60.9986 38.2552 60.9957 38.1334L61.8875 38.4998L60.9957 38.8662ZM40 39C40 42.8658 42.91 46 46.5 46C50.0896 46 53 42.8662 53 39C53 35.1338 50.0896 32 46.5 32C42.9104 32 40 35.1338 40 39ZM51 39C51 41.7932 48.9508 44 46.5 44C44.0492 44 42 41.7931 42 39C42 36.2068 44.0492 34 46.5 34C48.9508 34 51 36.2068 51 39Z" fill="#323230"/>
</svg>
