<svg width="48" height="48" viewBox="0 0 48 48" fill="none" xmlns="http://www.w3.org/2000/svg">
<rect x="6.66675" y="11.3333" width="34.6667" height="1.33333" fill="#323230"/>
<rect x="6.66675" y="18" width="12" height="1.33333" fill="#323230"/>
<rect x="6.66675" y="24.6666" width="10" height="1.33333" fill="#323230"/>
<rect x="6.66675" y="31.3333" width="12" height="1.33333" fill="#323230"/>
<path fill-rule="evenodd" clip-rule="evenodd" d="M39.5931 27.7922L41.9421 26.827C41.9806 26.4453 42 26.0582 42 25.6666C42 25.2747 41.9806 24.8874 41.9421 24.506L39.5931 23.5408C39.486 23.0863 39.3458 22.6445 39.1742 22.2194L40.5195 20.0272C40.1375 19.3546 39.6893 18.7262 39.1836 18.1508L36.7277 18.783C36.3832 18.4829 36.0167 18.2086 35.6295 17.9652L35.4594 15.3824C34.7746 15.0714 34.0528 14.8298 33.3028 14.6666L31.6787 16.6561C31.4544 16.6387 31.2288 16.6269 31.0001 16.6269C30.7714 16.6269 30.5456 16.6387 30.3213 16.6563L28.697 14.6666C27.9474 14.8298 27.2257 15.0714 26.5411 15.3824L26.3708 17.9652C25.9838 18.2086 25.6173 18.4829 25.2728 18.783L22.8169 18.1508C22.3115 18.7262 21.863 19.3543 21.4808 20.0272L22.8263 22.2194C22.6545 22.6445 22.5143 23.0863 22.4074 23.5408L20.0584 24.506C20.0196 24.8877 20 25.2747 20 25.6666C20 26.0582 20.0196 26.4453 20.0579 26.827L22.4069 27.7922C22.514 28.247 22.6542 28.6884 22.8258 29.1136L21.4802 31.3061C21.8625 31.9787 22.311 32.6076 22.8164 33.1822L25.2723 32.5503C25.617 32.8503 25.9833 33.1246 26.3705 33.3684L26.5406 35.9509C27.2251 36.2619 27.9469 36.503 28.6965 36.6666L30.3208 34.6772C30.5451 34.6946 30.7709 34.7064 30.9996 34.7064C31.2283 34.7064 31.4539 34.6948 31.6782 34.6772L33.3022 36.6666C34.0523 36.503 34.7741 36.2619 35.4589 35.9509L35.629 33.3684C36.0162 33.1246 36.3827 32.8503 36.7272 32.5503L39.1828 33.1822C39.6885 32.6076 40.1367 31.9789 40.5187 31.3061L39.1742 29.1136C39.3461 28.6884 39.486 28.247 39.5931 27.7922ZM38.9528 31.3031C39.0965 31.0904 39.232 30.8718 39.3592 30.6478L40.5187 31.3061L39.5058 31.9272L39.1828 33.1822L38.1819 32.3014C38.3585 32.1007 38.527 31.8926 38.687 31.6778L39.2755 31.8293L38.9528 31.3031ZM40.6638 25.9107C40.6577 26.1742 40.6415 26.4351 40.6155 26.6932L41.9421 26.827L41.4653 25.6665L41.9421 24.506L40.6155 24.6399C40.6415 24.8977 40.6577 25.1586 40.6638 25.4222L38.4526 24.5137L38.2953 23.8467C38.2038 23.4584 38.0842 23.0812 37.9378 22.7185L37.6861 22.0951L38.9534 20.03C39.0972 20.243 39.2329 20.4617 39.3601 20.6856L40.5195 20.0272L39.5066 19.4056L39.1836 18.1508L38.1821 19.0309C38.3589 19.2321 38.5275 19.4404 38.6875 19.6553L36.381 20.249L35.8521 19.7885C35.5549 19.5297 35.2435 19.2975 34.9197 19.0939L34.3437 18.7317L34.1838 16.3029C34.429 16.3906 34.6706 16.4885 34.9081 16.5964L35.4594 15.3824L34.275 15.4603L33.3028 14.6666L33.0194 15.9695C33.2808 16.0264 33.5392 16.0943 33.7942 16.1731L32.2706 18.0394L31.5755 17.9854C31.3591 17.9686 31.1738 17.9602 31.0001 17.9602C30.8259 17.9602 30.6401 17.9687 30.4261 17.9856L29.73 18.0404L28.2057 16.1732C28.4606 16.0944 28.7191 16.0264 28.9805 15.9695L28.697 14.6666L27.7246 15.4604L26.5411 15.3824L27.0926 16.5963C27.3299 16.4885 27.5714 16.3906 27.8166 16.3029L27.6565 18.7315L27.0809 19.0937C26.7571 19.2974 26.4455 19.5298 26.1484 19.7885L25.6196 20.249L23.313 19.6553C23.4731 19.4405 23.6417 19.2321 23.8187 19.0307L22.8169 18.1508L22.494 19.4053L21.4808 20.0272L22.6401 20.6858C22.7673 20.4619 22.903 20.2432 23.047 20.0301L24.3147 22.0954L24.0625 22.7192C23.916 23.0815 23.7966 23.4582 23.7053 23.846L23.5484 24.5135L21.3362 25.4224C21.3424 25.1596 21.3587 24.899 21.3849 24.6407L20.0584 24.506L20.535 25.6659L20.0579 26.827L21.3846 26.6941C21.3586 26.4344 21.3424 26.1732 21.3362 25.9108L23.5475 26.8193L23.7047 27.4864C23.7961 27.8745 23.9157 28.2514 24.0622 28.6145L24.3139 29.2379L23.0464 31.3031C22.9026 31.0902 22.7668 30.8714 22.6395 30.6473L21.4802 31.3061L22.4937 31.928L22.8164 33.1822L23.8175 32.3016C23.641 32.1009 23.4724 31.8927 23.3123 31.6778L25.6188 31.0844L26.1475 31.5445C26.4456 31.8039 26.7572 32.0362 27.0808 32.24L27.6563 32.6023L27.8162 35.0302C27.5707 34.9425 27.3291 34.8446 27.092 34.7369L26.5406 35.9509L27.7244 35.8729L28.6965 36.6666L28.9809 35.364C28.7189 35.3068 28.4602 35.2387 28.2054 35.1599L29.7289 33.2939L30.424 33.3478C30.6403 33.3646 30.8258 33.373 30.9996 33.373C31.1754 33.373 31.3618 33.3646 31.5734 33.348L32.2695 33.2931L33.7935 35.16C33.5386 35.2387 33.2799 35.3068 33.018 35.3639L33.3022 36.6666L34.2745 35.8729L35.4589 35.9509L34.9076 34.7369C34.6704 34.8446 34.4288 34.9424 34.1833 35.0302L34.3432 32.6023L34.9186 32.24C35.2429 32.0359 35.5545 31.8035 35.8516 31.5448L36.3804 31.0843L38.687 31.6778C38.7784 31.5551 38.8671 31.4302 38.9528 31.3031L37.686 29.2373L37.9381 28.6138C38.0842 28.2522 38.2036 27.8757 38.2953 27.4864L38.4525 26.8193L40.6638 25.9107ZM34.1833 35.0302L34.1463 35.5922L33.7935 35.16C33.9245 35.1195 34.0544 35.0762 34.1833 35.0302ZM28.2054 35.1599L27.8531 35.5913L27.8162 35.0302C27.9448 35.0762 28.0746 35.1195 28.2054 35.1599ZM23.3123 31.6778L22.7235 31.8293L23.0464 31.3031C23.1323 31.4301 23.2209 31.5551 23.3123 31.6778ZM21.3362 25.9108L20.742 25.6666L21.3362 25.4224C21.3343 25.5036 21.3333 25.585 21.3333 25.6666C21.3333 25.7481 21.3343 25.8295 21.3362 25.9108ZM23.047 20.0301L22.7239 19.5036L23.313 19.6553C23.2215 19.7782 23.1328 19.9031 23.047 20.0301ZM27.8166 16.3029L27.8536 15.7419L28.2057 16.1732C28.075 16.2136 27.9453 16.2568 27.8166 16.3029ZM33.7942 16.1731L34.1468 15.7411L34.1838 16.3029C34.0549 16.2568 33.925 16.2135 33.7942 16.1731ZM38.6875 19.6553L39.2764 19.5037L38.9534 20.03C38.8676 19.903 38.779 19.7781 38.6875 19.6553ZM40.6638 25.9107C40.6657 25.8296 40.6667 25.7482 40.6667 25.6666C40.6667 25.5849 40.6657 25.5035 40.6638 25.4222L41.2583 25.6665L40.6638 25.9107ZM26.6667 26C26.6667 28.5771 28.6066 30.6666 31 30.6666C33.3931 30.6666 35.3333 28.5774 35.3333 26C35.3333 23.4225 33.3931 21.3333 31 21.3333C28.6069 21.3333 26.6667 23.4225 26.6667 26ZM34 26C34 27.8621 32.6338 29.3333 31 29.3333C29.3661 29.3333 28 27.862 28 26C28 24.1378 29.3662 22.6666 31 22.6666C32.6338 22.6666 34 24.1378 34 26Z" fill="#323230"/>
</svg>
