<svg width="72" height="72" viewBox="0 0 72 72" fill="none" xmlns="http://www.w3.org/2000/svg">
<path fill-rule="evenodd" clip-rule="evenodd" d="M53.1928 18.8995L37.2843 15.009L9.00004 43.2933L28.799 63.0923L57.0833 34.808L53.1928 18.8995ZM11.8285 43.2933L37.9026 17.2192L51.5385 20.5539L54.8732 34.1897L28.799 60.2639L11.8285 43.2933Z" fill="#323230"/>
<path fill-rule="evenodd" clip-rule="evenodd" d="M30.8699 34.6209L31.8754 35.6264L36.0629 31.4389C36.4872 31.7274 36.9093 32.0435 37.3294 32.3872C37.7494 32.7308 38.1715 33.1148 38.5958 33.539C39.037 33.9803 39.4231 34.4427 39.754 34.9264C40.085 35.41 40.3013 35.9064 40.4032 36.4155C40.505 36.9247 40.4689 37.4486 40.295 37.9874C40.121 38.5263 39.754 39.0757 39.194 39.6357C38.6764 40.1533 38.1461 40.5012 37.603 40.6794C37.06 40.8576 36.5233 40.9106 35.9929 40.8385C35.4626 40.7664 34.9556 40.5903 34.4719 40.3103C33.9883 40.0303 33.5471 39.6909 33.1482 39.292C33.0294 39.1733 32.881 39.0205 32.7028 38.8338C32.5246 38.6472 32.3973 38.4987 32.3209 38.3884L31.5827 39.1266L33.6192 41.1631L32.4609 42.3213L30.4245 40.2848L28.8462 41.8631L27.2425 40.2594L28.8207 38.6811L27.8152 37.6756L28.9735 36.5174L29.979 37.5229L30.7172 36.7846L29.7117 35.7791L30.8699 34.6209ZM37.3357 35.0791C37.166 34.9094 36.9984 34.7545 36.833 34.6145C36.6675 34.4745 36.5296 34.3663 36.4193 34.29L33.5428 37.1665C33.5937 37.2513 33.6892 37.3765 33.8292 37.542C33.9692 37.7074 34.0731 37.8241 34.141 37.892C34.3701 38.1211 34.6183 38.3099 34.8856 38.4584C35.1529 38.6069 35.4265 38.6938 35.7066 38.7193C35.9866 38.7447 36.2708 38.7023 36.5593 38.592C36.8478 38.4817 37.1321 38.2865 37.4121 38.0065C37.9297 37.4889 38.1567 36.9819 38.093 36.4855C38.0294 35.9892 37.777 35.5203 37.3357 35.0791Z" fill="#323230"/>
</svg>
