<svg width="16" height="16" viewBox="0 0 16 16" fill="none" xmlns="http://www.w3.org/2000/svg">
<path fill-rule="evenodd" clip-rule="evenodd" d="M15 0H1C0.447715 0 0 0.447715 0 1V15C0 15.5523 0.447715 16 1 16H15C15.5523 16 16 15.5523 16 15V1C16 0.447715 15.5523 0 15 0ZM1.5 14.5V1.5H14.5V14.5H1.5Z" fill="#0CB520"/>
<path d="M0.882377 14.798L0.473633 10.588L3.87654 7.00258L6.65971 10.0007L11.3325 3.83008L14.9999 8.38607V15.1748L12.2706 14.798H7.73679H3.87654H0.882377Z" fill="#0CB520"/>
<path fill-rule="evenodd" clip-rule="evenodd" d="M5.5 6C6.32843 6 7 5.32843 7 4.5C7 3.67157 6.32843 3 5.5 3C4.67157 3 4 3.67157 4 4.5C4 5.32843 4.67157 6 5.5 6Z" fill="#0CB520"/>
</svg>
